<?xml version="1.0" encoding="utf-8"?>
<!-- Generator: Adobe Illustrator 25.2.0, SVG Export Plug-In . SVG Version: 6.00 Build 0)  -->
<svg version="1.1" id="Layer_1" xmlns="http://www.w3.org/2000/svg" xmlns:xlink="http://www.w3.org/1999/xlink" x="0px" y="0px"
	 viewBox="0 0 822.1 825.6" style="enable-background:new 0 0 822.1 825.6;" xml:space="preserve">
<g>
	<path d="M438.3,655.1c-1.6-2.6-3-4.2-3.7-6c-5.6-14.1-11.1-28.2-16.4-42.3c-6-15.9-11.8-31.8-17.7-47.7
		c-7.8-20.9-16-41.6-23.5-62.6c-4.9-13.8-9.2-27.8-13.4-41.8c-2.5-8.2,1.6-16.2,9.7-19.5c4-1.6,8.2-2.6,12.4-3.8
		c2.3-0.7,5.8-0.6,5.6-3.8c-0.2-3.7-3.8-3-6.3-3c-25.8,0.1-51.6,0.2-77.5,0.4c-2.5,0-5,0-7.5,0.1c-15.1,0.7-25.6-8.7-26-24.1
		c-0.6-24-0.7-48-1.1-72c0-2.8-0.1-5.7-0.1-8.5c0-5.5,1.3-6.8,6.7-6.9c9.5-0.2,19-0.3,28.5-0.7c18.5-0.8,37-2.2,54.9-7.1
		c20.1-5.6,38.2-15.1,51.3-31.9c15.6-20,20.4-42.3,14.7-67.3c-5.6-24.6-20.7-41.5-41.8-53.2c-13.4-7.5-28.2-11.4-43.8-12.8
		c-25.1-2.2-50.3-2.3-75.4-1.8c-24.3,0.5-48.6,0.8-73,1.1c-1.6,0-3.1-0.4-4.7-0.7c-0.6-4.1,2-5.7,4.3-7.1c14.1-8.5,28-17.5,42.6-25
		c13.3-6.8,27.3-12.2,41.2-17.7c9.4-3.7,19.1-6.7,28.9-9.7c23.7-7.1,48.1-10.7,72.7-13c28.2-2.6,56.2-1.5,84.2,2.3
		c18.9,2.6,37.5,6.2,55.7,11.8c12.5,3.8,24.9,8.3,37,13.3c12.6,5.2,25,10.9,37.1,17.1c9.7,5,19.1,10.9,28.2,17
		c26,17.1,49.3,37.5,70.1,60.6c12.1,13.5,23.6,27.7,32.8,43.3c8.5,14.4,17.2,28.9,24.3,44.1c6.3,13.5,11.3,27.8,15.6,42
		c4.1,13.7,7,27.8,9.8,41.8c1.5,7.6,1.8,15.5,2.5,23.3c2.6,26.3,1.6,52.7-2.1,78.8c-1.7,12.1-4.9,24.1-8.1,36
		c-3.4,12.3-7.3,24.6-11.7,36.6c-3.2,8.9-7.4,17.5-11.6,26c-8.3,16.6-18.1,32.2-28.9,47.2c-14.3,19.8-30.3,38.1-48.6,54.2
		c-8.7,7.7-17.5,15.4-26.8,22.4c-16.4,12.2-33.6,23.4-52,32.5c-1.8,0.9-3.3,2.3-5.1,3.1c-1.5,0.6-3.3,0.6-5,0.8
		c-0.2-1.7-0.9-3.6-0.4-5c3.7-8.6,7.8-16.9,11.5-25.5c2.6-6.1,5-12.3,7.2-18.6c8.7-25.2,17.3-50.4,26-75.6
		c8.3-24.1,16.6-48.2,24.9-72.3c4.2-12.4,7.9-25.1,12.5-37.4c5.4-14.6,10.9-29.3,21.4-41.5c6.2-7.1,13.9-11.2,22.6-13.9
		c2.2-0.7,5.3-0.7,4.9-3.8c-0.4-3.3-3.6-2.9-6.1-2.9c-25.7,0-51.3,0.1-77,0.1c-0.2,0-0.4-0.1-0.5,0c-1.8,0.8-5,1.3-5.2,2.4
		c-0.6,3,2.4,3.4,4.6,4c7.2,1.9,14.7,3.1,21,7.6c5.7,4.1,8.3,9.1,8.3,16.5c0,12.9-3.5,25.1-7.2,37.1c-6.1,20.2-12.8,40.3-19.5,60.4
		c-6.1,18.3-12.4,36.6-18.5,54.9c-4.3,12.8-8.5,25.6-12.9,38.3c-0.6,1.8-2.4,3.2-3.6,4.8c-1.3-1.5-3.3-2.8-4-4.6
		c-6.9-18.7-13.6-37.5-20.2-56.3c-4.2-11.9-8.3-23.9-12.5-35.8c-4-11.1-8.2-22.2-12.1-33.3c-4.6-13-8.9-26.1-13.3-39.2
		c-2.3-6.9-4-14.1-6.9-20.8c-6-13.9,0-20.6,13.2-25.8c4.7-1.9,10-2.3,15.1-3.4c2.4-0.5,5.8-0.7,5.6-3.8c-0.2-3.6-3.8-3.1-6.3-3.1
		c-20.5,0.2-41,0.6-61.4,0.7c-16,0-32-0.4-48-0.6c-2.5,0-5-0.2-7.5,0.2c-1.2,0.2-2.2,1.6-3.3,2.5c1,1.1,1.8,2.8,3.1,3.2
		c4.8,1.5,9.7,2.4,14.5,3.7c9.5,2.7,16.7,8.8,20.6,17.6c7.3,16.2,14,32.7,20.5,49.3c1.2,3,1.4,7.1,0.4,10.1
		c-6.3,19.5-12.9,38.9-19.5,58.2c-5.6,16.2-11.4,32.4-17,48.6c-3.8,10.8-7.4,21.7-11.2,32.6C440.9,651.8,439.8,652.9,438.3,655.1z"
		/>
	<path d="M497.9,523.9c1.9,5.1,3.8,10.2,5.6,15.3c2.6,7.2,5.1,14.4,7.6,21.7c4.2,11.9,8.5,23.8,12.7,35.8
		c4.5,12.7,8.8,25.5,13.2,38.2c4.4,12.6,8.8,25.1,13.4,37.6c4.3,11.9,8.7,23.7,13.2,35.5c1.8,4.7,3.8,9.2,5.7,13.8
		c1.2,2.9-0.4,4.5-2.8,5.4c-14.7,5.4-29.3,11-44.1,16c-20.3,6.8-41.3,10.7-62.4,13.3c-14.8,1.8-29.9,2.3-44.9,2.5
		c-14.1,0.2-28.4-0.1-42.4-1.6c-15.5-1.6-31-4.3-46.3-7.7c-14.7-3.3-29.3-7.7-43.7-12.5c-10.9-3.6-21.5-8.1-31.8-13.1
		c-14-6.8-28-13.9-41.4-22c-30.8-18.8-57.9-42-81.5-69.3c-14.4-16.6-27.7-34.2-38.4-53.4C83,567.5,77,555.2,71.5,542.7
		c-4.9-10.9-9.3-22.1-12.9-33.5c-3.5-11.4-5.8-23.2-8.5-34.9c-4.7-20.7-6.2-41.9-6-63c0.2-20.3,1.2-40.6,6.1-60.5
		c2.5-10.2,4-20.6,7-30.6c3.5-11.8,7.6-23.5,12.4-34.7c5.4-12.7,11.5-25.1,18.1-37.2c5-9.2,10.9-17.9,16.8-26.5
		C119,201,135.4,182,154,164.9c7.6-7,15.6-13.5,23.5-20.2c2.9-2.5,5.3-2.3,9-0.5c3.9,2,8.9,2.4,13.4,3c6.4,0.9,12.3,2.8,17.3,7.1
		c5.4,4.6,8,10.7,8.3,17.6c0.7,16.5,1.2,33,1.3,49.5c0.1,40.5,0.1,81-0.2,121.5c-0.1,18.2-0.6,36.3-1.6,54.5
		c-0.3,5.7-1.7,11.7-4,16.9c-3.7,8.1-11.3,11.8-19.6,14c-3.2,0.8-6.5,1.3-9.8,2c-2.4,0.5-4.9,1.3-4.4,4.3c0.4,2.8,2.9,2.8,5.1,2.8
		c13.5-0.2,27-0.6,40.5-0.7c19.7-0.1,39.3,0,59-0.1c8.2,0,12.7,5.3,16.4,11.4c7.2,11.9,11.8,24.9,16.5,37.9
		c3.7,10.2,7.8,20.2,11.6,30.3c3,7.8,5.8,15.6,8.8,23.4c2.4,6.2,4.8,12.4,7.2,18.6c2.3,6.1,4.7,12.1,7,18.2
		c6.7,17.7,13.5,35.4,20.2,53.2c5.8,15.6,11.4,31.3,17.2,46.8c4.3,11.5,9,22.9,13.5,34.4c0.9,2.3,1.5,4.8,2.3,7.1
		c0.9,2.7,2.3,5,5.4,5.3c3.3,0.3,3.9-2.5,4.9-4.8c4.4-9.7,9-19.3,13.2-29c2.8-6.4,4.9-13.1,7.3-19.6c4-11,8-21.9,11.9-32.9
		c6.5-18.4,12.9-36.8,19.4-55.2c6.2-17.8,12.4-35.5,18.7-53.3c0.6-1.7,1.9-3.2,2.9-4.7C496.7,523.8,497.3,523.8,497.9,523.9z"/>
	<path d="M411.1,824.3c-26.1,1.4-52-1.8-77.6-6.1c-16.7-2.8-33.2-7.3-49.5-11.8c-13-3.6-25.8-7.8-38.3-12.7
		c-13.6-5.4-27-11.4-40.1-18c-12.9-6.5-25.4-13.9-37.7-21.4c-16.8-10.2-32.5-22-47.5-34.7c-16.6-14-32.3-29-46.2-45.6
		c-11.6-13.9-22.6-28.4-32.7-43.4c-8.8-13.1-16.5-27-24-40.9c-5-9.4-8.7-19.4-13.1-29.1c-0.9-2-2-3.8-3.1-5.7
		c-2.8-4.9-0.9-8.2,4.7-8.2c7.7,0,15.3,0.2,23,0c5-0.2,8.2,1.8,10.2,6.3c3.7,8.2,7.2,16.5,11.6,24.3c7.2,12.9,14.4,25.9,22.5,38.2
		c14,21.4,30.4,41,48.9,58.5c12.1,11.4,24.8,22.2,37.7,32.7c16.8,13.7,35.2,25.3,54.5,35.2c16.4,8.4,33.5,15.6,50.5,22.7
		c21.1,8.8,43.2,14.7,65.7,18.9c17.2,3.2,34.6,5.4,52,6.8c28,2.1,55.9,1.2,83.8-2.5c22.7-3,45-7.9,66.8-14.7
		c19.9-6.2,39.2-13.9,58-22.8c23.2-10.9,44.9-24,65.5-39.1c23.2-17,44.2-36.3,63.3-57.9c15-17,28.7-35.1,40-54.7
		c8.6-14.8,15.6-30.5,23.1-45.8c1.8-3.8,4.5-5.8,8.5-5.8c8.5-0.1,17-0.2,25.5,0c4.5,0.1,6.1,3,4.2,7.2c-4.8,10.6-9,21.5-14.5,31.7
		c-8.5,15.8-17,31.8-27,46.6c-10.8,15.9-22.8,31.2-35.3,45.8c-13.9,16.2-29.3,31-46.1,44.2c-12.9,10.2-26.2,20-39.7,29.3
		c-9.2,6.3-19,11.8-28.8,17c-11.6,6.2-23.3,12.2-35.3,17.5c-11.4,5.1-23,9.7-34.9,13.6c-15.5,5.1-31.1,9.9-47,13.5
		c-15.4,3.5-31.1,6.1-46.8,7.9c-18.2,2.1-36.5,3-54.7,4.4C411.2,825.1,411.2,824.7,411.1,824.3z"/>
	<path d="M794.4,255.2c-4.2,0-8.3-0.1-12.5,0c-4.4,0.1-7-2.1-9.1-5.8c-7.6-13.5-14.8-27.2-23.3-40.1c-12.4-18.8-26.8-36-42.4-52.3
		c-18.2-18.9-38-36-59.8-50.5c-15.1-10-30.7-19.2-46.7-27.8c-26-14-53.7-23.8-82.3-31.6c-42.8-11.6-86.5-16-130.6-13.5
		c-39.1,2.2-77.3,9.7-114.3,22.8C248.3,65.4,224,76.3,201,89.8c-26.2,15.4-50.5,33.3-72.7,54.3c-16.4,15.5-31.5,32.1-44.9,50.2
		c-8.3,11.2-15.5,23.2-22.9,35.1C56.5,236,53,243,49.3,249.8c-2,3.7-4.9,5.6-9.3,5.5c-8-0.2-16,0-24,0c-6.2,0-7.7-2.8-4.8-8.2
		c5.1-9.5,9.7-19.4,15.1-28.7c6.6-11.3,13.5-22.6,20.9-33.4c13.3-19.4,28.5-37.4,45-54.1c19.1-19.4,39.9-36.7,62.4-52.1
		c20-13.7,40.9-25.5,62.8-35.9c30.7-14.6,62.6-25.3,95.8-32.5c22.3-4.8,44.8-8.5,67.7-9.2c5.7-0.2,11.3-0.8,17-1
		c29-0.9,57.8,1,86.6,5.6c27.8,4.5,54.7,11.4,81.2,20.8c23.5,8.3,45.9,18.7,67.6,30.7c17.7,9.8,34.6,20.6,50.5,32.9
		c23.8,18.4,45.9,38.5,65.4,61.5c15.1,17.8,29,36.5,40.9,56.6c6.6,11.1,12.2,22.8,18.3,34.3c1.1,2,2.6,3.9,3.5,6
		c1.9,4,0.3,6.6-4.1,6.6C803.4,255.3,798.9,255.2,794.4,255.2C794.4,255.2,794.4,255.2,794.4,255.2z"/>
	<path d="M272.4,230.6c0.6-22.3,1.1-44.6,1.9-66.9c0.1-3.8,1.1-7.6,1.8-11.3c0.7-3.5,3-5.6,6.6-5.8c18.5-0.9,37.2-1.9,54.8,4.9
		c13,5,24.1,13.3,32.5,24.7c16.3,22,19.4,46,11.9,71.9c-5.8,20.1-18.2,35-36,45.4c-10.1,5.9-21.4,9.5-33,10.6
		c-11.3,1.1-22.6,1.2-33.9,1.5c-5.1,0.2-6.3-1.3-6.3-6.1c0-23,0-46,0-69C272.6,230.6,272.5,230.6,272.4,230.6z"/>
</g>
</svg>
